<svg width="24" height="43" viewBox="0 0 24 43" fill="none" xmlns="http://www.w3.org/2000/svg">
<g filter="url(#filter0_d_27:76)">
<path d="M13.2723 0H14.18C15.5729 0.0554919 16.9664 0.314454 18.2584 0.848681C19.1332 1.20985 19.9965 1.66789 20.6421 2.37675C21.018 2.78808 21.3122 3.27433 21.5032 3.79853C21.7211 4.40675 21.8027 5.06043 21.7715 5.70438C21.738 6.30695 21.607 6.90952 21.3488 7.45661C21.1458 7.85978 20.9442 8.26673 20.68 8.63448C20.3489 9.10161 19.9249 9.51232 19.4149 9.77786C18.8046 10.0933 18.0861 10.2171 17.4117 10.0663C16.5334 9.88477 15.7802 9.21322 15.4813 8.36862C15.4275 8.10934 15.4635 7.82875 15.5754 7.58922C15.6439 7.43466 15.824 7.39108 15.9759 7.37164C16.3067 7.33308 16.621 7.47072 16.9461 7.50081C17.1659 7.52966 17.3454 7.35565 17.4483 7.18009C17.5633 7.00389 17.5858 6.78882 17.5868 6.58347C17.5874 6.23578 17.593 5.88402 17.5205 5.54198C17.4626 5.25198 17.3094 4.99333 17.1503 4.74879C16.9027 4.3779 16.5278 4.12082 16.1448 3.90763C15.5348 3.55023 14.8266 3.40664 14.129 3.35773C13.5321 3.30976 12.9281 3.33986 12.3415 3.46338C11.2497 3.70416 10.2714 4.33715 9.51533 5.15228C8.88312 5.81819 8.36159 6.62047 8.15211 7.52464C7.94981 8.39558 8.03924 9.33706 8.42569 10.1453C8.7543 10.836 9.26926 11.4235 9.86614 11.8947C10.7394 12.6208 11.688 13.2522 12.6742 13.8128C13.267 14.1576 13.8951 14.4332 14.5123 14.7298C15.1327 15.0311 15.7458 15.3474 16.3517 15.6766C16.7266 15.8857 17.109 16.0823 17.4776 16.3021C18.0164 16.6256 18.5276 16.9956 19.0022 17.4075C19.3577 17.7082 19.6719 18.0531 20.0159 18.3663C20.4758 18.8055 20.8966 19.2848 21.2859 19.788C21.532 20.1097 21.773 20.4367 21.9816 20.7847C22.5209 21.676 22.8855 22.6746 23.04 23.7063C23.0953 24.0524 23.1169 24.4026 23.1372 24.7522V25.3165C23.1072 26.094 23.039 26.8728 22.8767 27.635C22.6316 28.826 22.1892 29.9791 21.547 31.0121C20.9914 31.91 20.2901 32.7136 19.4965 33.4074C18.7346 34.062 17.906 34.6379 17.0387 35.1433C15.9412 35.7779 14.7684 36.2857 13.5468 36.6247C12.5554 36.9065 11.5317 37.0438 10.5096 37.1551C10.383 37.3545 10.266 37.5602 10.1472 37.7646C9.86145 38.2731 9.62882 38.823 9.23018 39.2579C8.82215 39.7222 8.25372 40.0774 7.62777 40.1238C7.1125 40.1674 6.59379 39.9799 6.19764 39.6529C5.69457 39.2278 5.4016 38.5847 5.33469 37.9348C5.30092 37.7373 5.43161 37.5175 5.63516 37.4846C6.23016 37.3667 6.81703 37.1899 7.36076 36.9178C7.43642 36.878 7.51771 36.8466 7.58337 36.7908C7.61683 36.6958 7.5027 36.6491 7.4311 36.629C6.93897 36.5039 6.4409 36.4002 5.95439 36.2535C5.30467 36.0647 4.66652 35.8371 4.04182 35.5769C3.56751 35.3775 3.09382 35.1696 2.6589 34.8925C1.9479 34.363 1.26848 33.7717 0.747894 33.0478C0.236687 32.3336 0.0687863 31.4423 0 30.5833V30.0503C0.0218865 29.8449 0.0506536 29.6396 0.10068 29.4389C0.306413 28.5592 0.832001 27.7757 1.51205 27.1913C2.43253 26.396 3.66193 25.9476 4.88038 26.0326C5.86747 26.0962 6.81265 26.4947 7.60151 27.0838C8.41443 27.6886 9.07853 28.4786 9.59881 29.3458C10.1697 30.3005 10.5837 31.3501 10.8066 32.4408C10.8291 32.544 10.8388 32.6509 10.8776 32.7503C11.3444 32.6484 11.7947 32.4835 12.2396 32.311C13.1985 31.9229 14.1081 31.405 14.9125 30.7516C15.5613 30.2233 16.1457 29.6092 16.6038 28.9066C17.0784 28.1789 17.4226 27.3581 17.5546 26.4963C17.594 26.2135 17.6487 25.9291 17.6274 25.6426C17.6005 25.3074 17.5333 24.9761 17.4289 24.6566C17.1312 23.7471 16.5594 22.9548 15.8981 22.2754C15.0539 21.3913 14.0852 20.6298 13.0406 19.9981C11.4589 19.0833 9.87302 18.175 8.27968 17.2802C6.72292 16.4275 5.29216 15.3299 4.11717 13.9934C3.4315 13.2347 2.89215 12.3349 2.59637 11.3523C2.25056 10.2202 2.26182 9.00975 2.44598 7.85007C2.68454 6.3822 3.3452 4.98549 4.33791 3.87973C4.98012 3.1552 5.74553 2.54792 6.56409 2.03564C7.47238 1.47038 8.4407 0.997601 9.45936 0.669039C10.69 0.263666 11.9794 0.0526703 13.2723 0ZM3.06349 29.6891C2.91841 29.9443 2.88715 30.2468 2.89746 30.5356C2.9206 30.972 3.14916 31.3783 3.46714 31.6693C3.89987 32.0702 4.44641 32.3167 4.99326 32.5189C5.28122 32.6195 5.56387 32.7361 5.85809 32.817C6.34647 32.9569 6.84861 33.039 7.34794 33.128C7.51428 33.1556 7.67936 33.1973 7.84914 33.1958C7.53898 32.0978 6.98555 31.0683 6.24016 30.2061C5.99941 29.9236 5.7324 29.6612 5.42286 29.4549C5.07611 29.2204 4.67403 29.0505 4.25255 29.0301C3.7748 29.0103 3.31018 29.2844 3.06349 29.6891Z" fill="white"/>
</g>
<defs>
<filter id="filter0_d_27:76" x="0" y="0" width="23.1372" height="42.13" filterUnits="userSpaceOnUse" color-interpolation-filters="sRGB">
<feFlood flood-opacity="0" result="BackgroundImageFix"/>
<feColorMatrix in="SourceAlpha" type="matrix" values="0 0 0 0 0 0 0 0 0 0 0 0 0 0 0 0 0 0 127 0" result="hardAlpha"/>
<feOffset dy="2"/>
<feComposite in2="hardAlpha" operator="out"/>
<feColorMatrix type="matrix" values="0 0 0 0 0 0 0 0 0 0 0 0 0 0 0 0 0 0 0.25 0"/>
<feBlend mode="normal" in2="BackgroundImageFix" result="effect1_dropShadow_27:76"/>
<feBlend mode="normal" in="SourceGraphic" in2="effect1_dropShadow_27:76" result="shape"/>
</filter>
</defs>
</svg>
